<svg version="1.1" id="Layer_1_1_" xmlns="http://www.w3.org/2000/svg" xmlns:xlink="http://www.w3.org/1999/xlink" x="0px" y="0px" viewBox="0 0 64 64" style="enable-background:new 0 0 64 64;" xml:space="preserve">
<path d="M58.838,11.607C60.158,10.505,61,8.85,61,7c0-3.309-2.691-6-6-6s-6,2.691-6,6c0,1.85,0.842,3.505,2.162,4.607  C48.714,12.698,47,15.151,47,18v6c0,0.552,0.448,1,1,1h14c0.552,0,1-0.448,1-1v-6C63,15.151,61.286,12.698,58.838,11.607z   M55.952,16.86L55,18.764l-0.952-1.904L54.82,13h0.36L55.952,16.86z M55,3c1.314,0,2.472,0.645,3.201,1.626  c-2.086,0.489-4.317,0.489-6.403,0C52.528,3.645,53.686,3,55,3z M51.05,6.501C52.328,6.829,53.651,7,55,7s2.672-0.171,3.95-0.499  C58.97,6.666,59,6.829,59,7c0,2.206-1.794,4-4,4s-4-1.794-4-4C51,6.829,51.03,6.666,51.05,6.501z M61,23H49v-5  c0-2.321,1.597-4.26,3.744-4.821l-0.725,3.624c-0.044,0.218-0.013,0.445,0.086,0.644l2,4C54.275,21.786,54.621,22,55,22  s0.725-0.214,0.895-0.553l2-4c0.099-0.199,0.13-0.425,0.086-0.644l-0.725-3.624C59.403,13.74,61,15.679,61,18V23z" fill="#27ae60"/>
<path d="M2,25h14c0.552,0,1-0.448,1-1v-6c0-2.849-1.714-5.302-4.162-6.393C14.158,10.505,15,8.85,15,7c0-3.309-2.691-6-6-6  S3,3.691,3,7c0,1.85,0.842,3.505,2.162,4.607C2.714,12.698,1,15.151,1,18v6C1,24.552,1.448,25,2,25z M9.952,16.86L9,18.764  L8.048,16.86L8.82,13h0.36L9.952,16.86z M9,3c1.314,0,2.472,0.645,3.201,1.626c-2.086,0.489-4.317,0.489-6.403,0  C6.528,3.645,7.686,3,9,3z M5.05,6.501C6.328,6.829,7.651,7,9,7s2.672-0.171,3.95-0.499C12.97,6.666,13,6.829,13,7  c0,2.206-1.794,4-4,4S5,9.206,5,7C5,6.829,5.03,6.666,5.05,6.501z M3,18c0-2.321,1.597-4.26,3.744-4.821L6.02,16.804  c-0.044,0.218-0.013,0.445,0.086,0.644l2,4C8.275,21.786,8.621,22,9,22s0.725-0.214,0.895-0.553l2-4  c0.099-0.199,0.13-0.425,0.086-0.644l-0.725-3.624C13.403,13.74,15,15.679,15,18v5H3V18z" fill="#27ae60"/>
<path d="M58.838,49.607C60.158,48.505,61,46.85,61,45c0-3.309-2.691-6-6-6s-6,2.691-6,6c0,1.85,0.842,3.505,2.162,4.607  C48.714,50.698,47,53.151,47,56v6c0,0.552,0.448,1,1,1h14c0.552,0,1-0.448,1-1v-6C63,53.151,61.286,50.698,58.838,49.607z   M55.952,54.86L55,56.764l-0.952-1.904L54.82,51h0.36L55.952,54.86z M55,41c1.314,0,2.472,0.645,3.201,1.626  c-2.086,0.489-4.317,0.489-6.403,0C52.528,41.645,53.686,41,55,41z M51.05,44.501C52.328,44.829,53.651,45,55,45  s2.672-0.171,3.95-0.499C58.97,44.666,59,44.829,59,45c0,2.206-1.794,4-4,4s-4-1.794-4-4C51,44.829,51.03,44.666,51.05,44.501z   M61,61H49v-5c0-2.321,1.597-4.26,3.744-4.821l-0.725,3.624c-0.044,0.218-0.013,0.445,0.086,0.644l2,4  C54.275,59.786,54.621,60,55,60s0.725-0.214,0.895-0.553l2-4c0.099-0.199,0.13-0.425,0.086-0.644l-0.725-3.624  C59.403,51.74,61,53.679,61,56V61z" fill="#27ae60"/>
<path d="M2,63h14c0.552,0,1-0.448,1-1v-6c0-2.849-1.714-5.302-4.162-6.393C14.158,48.505,15,46.85,15,45c0-3.309-2.691-6-6-6  s-6,2.691-6,6c0,1.85,0.842,3.505,2.162,4.607C2.714,50.698,1,53.151,1,56v6C1,62.552,1.448,63,2,63z M9.952,54.86L9,56.764  L8.048,54.86L8.82,51h0.36L9.952,54.86z M9,41c1.314,0,2.472,0.645,3.201,1.626c-2.086,0.489-4.317,0.489-6.403,0  C6.528,41.645,7.686,41,9,41z M5.05,44.501C6.328,44.829,7.651,45,9,45s2.672-0.171,3.95-0.499C12.97,44.666,13,44.829,13,45  c0,2.206-1.794,4-4,4s-4-1.794-4-4C5,44.829,5.03,44.666,5.05,44.501z M3,56c0-2.321,1.597-4.26,3.744-4.821L6.02,54.804  c-0.044,0.218-0.013,0.445,0.086,0.644l2,4C8.275,59.786,8.621,60,9,60s0.725-0.214,0.895-0.553l2-4  c0.099-0.199,0.13-0.425,0.086-0.644l-0.725-3.624C13.403,51.74,15,53.679,15,56v5H3V56z" fill="#27ae60"/>
<path d="M4.95,26.742C4.32,29.098,4,31.54,4,34c0,1.388,0.103,2.783,0.305,4.147l1.979-0.294C6.095,36.586,6,35.29,6,34  c0-2.285,0.297-4.554,0.882-6.742L4.95,26.742z" fill="#27ae60"/>
<path d="M32,62c4.715,0,9.376-1.194,13.482-3.454l-0.965-1.752C40.707,58.891,36.378,60,32,60c-4.379,0-8.708-1.109-12.518-3.206  l-0.965,1.752C22.623,60.806,27.285,62,32,62z" fill="#27ae60"/>
<path d="M59.695,38.147C59.897,36.783,60,35.388,60,34c0-2.46-0.32-4.903-0.951-7.259l-1.932,0.518C57.703,29.446,58,31.714,58,34  c0,1.29-0.095,2.586-0.284,3.853L59.695,38.147z" fill="#27ae60"/>
<path d="M32,8c5.171,0,10.166,1.514,14.444,4.378l1.112-1.662C42.948,7.631,37.569,6,32,6c-5.568,0-10.948,1.631-15.557,4.716  l1.112,1.662C21.834,9.514,26.829,8,32,8z" fill="#27ae60"/>
<path d="M21,48h22c1.103,0,2-0.897,2-2V24c0-1.103-0.897-2-2-2H21c-1.103,0-2,0.897-2,2v22C19,47.103,19.897,48,21,48z M41,46v-4  c0-0.552-0.448-1-1-1h-3.278c-0.347-0.595-0.985-1-1.722-1c-1.103,0-2,0.897-2,2s0.897,2,2,2c0.737,0,1.375-0.405,1.722-1H39v3H21  v-6h6v1.278c-0.595,0.347-1,0.985-1,1.722c0,1.103,0.897,2,2,2s2-0.897,2-2c0-0.737-0.405-1.375-1-1.722V39c0-0.552-0.448-1-1-1h-7  v-2h9.586l1.707,1.707C32.48,37.895,32.735,38,33,38h10.001l0.001,8H41z M28.278,29c0.347,0.595,0.985,1,1.722,1  c1.103,0,2-0.897,2-2s-0.897-2-2-2c-0.737,0-1.375,0.405-1.722,1H25c-0.552,0-1,0.448-1,1v2h-3v-6h22l0,7h-6v-2.278  c0.595-0.347,1-0.985,1-1.722c0-1.103-0.897-2-2-2s-2,0.897-2,2c0,0.737,0.405,1.375,1,1.722V32c0,0.552,0.448,1,1,1h7.001l0,3  h-9.587l-1.707-1.707C31.52,34.105,31.265,34,31,34H21v-2h4c0.552,0,1-0.448,1-1v-2H28.278z" fill="#27ae60"/>
</svg>