<svg version="1.0" xmlns="http://www.w3.org/2000/svg" width="1028.000000pt" height="1014.000000pt" viewBox="0 0 1028.000000 1014.000000" preserveAspectRatio="xMidYMid meet">

<g transform="translate(0.000000,1014.000000) scale(0.100000,-0.100000)" fill="#27ae60" stroke="none">
<path d="M4615 9998 c20 -46 51 -106 71 -135 44 -64 256 -271 464 -453 209 -184 246 -218 239 -224 -7 -8 -526 315 -660 411 -26 18 -49 33 -53 33 -3 0 22 -28 57 -62 194 -191 479 -489 473 -495 -11 -11 -105 39 -366 197 -408 246 -555 320 -786 398 -158 54 -252 76 -414 101 -225 34 -286 41 -423 47 l-132 5 70 -25 c126 -45 419 -172 423 -184 2 -6 -9 -14 -25 -18 -67 -15 -67 -16 3 -39 89 -29 233 -93 354 -157 100 -53 143 -85 134 -99 -3 -5 -33 -9 -67 -10 -69 0 -70 0 68 -49 170 -60 375 -170 375 -201 0 -7 -7 -8 -17 -4 -22 8 -320 85 -330 85 -5 0 20 -17 54 -38 35 -20 118 -72 186 -114 68 -43 152 -91 188 -107 100 -45 435 -151 478 -151 27 0 -9 28 -177 133 -224 141 -281 200 -92 94 383 -214 430 -239 430 -222 0 3 -16 47 -35 97 -20 50 -34 93 -32 95 3 2 48 -31 102 -73 165 -129 272 -189 502 -286 135 -56 94 -65 -87 -19 -124 32 -201 59 -267 96 l-41 23 5 -56 c7 -65 12 -64 -110 -8 l-78 36 59 -72 c85 -105 152 -208 152 -235 0 -13 -1 -23 -3 -23 -2 0 -28 18 -58 41 -65 49 -232 132 -554 274 -71 31 -134 60 -140 64 -5 5 -19 11 -30 14 -26 9 80 -90 172 -159 40 -30 109 -77 155 -105 98 -61 121 -80 110 -91 -4 -4 -23 -4 -42 1 -19 5 -87 21 -150 36 -63 15 -234 59 -380 97 -146 38 -323 85 -394 103 -70 19 -131 36 -134 39 -16 16 49 15 240 -4 117 -11 234 -24 261 -29 26 -5 47 -5 47 -2 0 18 -213 213 -275 253 -224 144 -562 271 -860 323 -94 16 -416 47 -423 41 -2 -2 7 -7 20 -11 31 -9 143 -75 253 -148 117 -78 341 -253 349 -272 9 -23 -25 -39 -204 -91 l-165 -49 60 -7 c72 -9 296 -63 484 -117 200 -57 316 -87 406 -105 86 -17 215 -63 215 -76 0 -4 -10 -6 -22 -3 -67 16 -209 56 -248 71 -35 13 -78 17 -195 16 -293 0 -426 -61 -693 -318 -51 -49 -90 -91 -88 -93 2 -3 91 23 198 57 359 116 340 111 499 117 157 6 273 -5 359 -34 69 -23 77 -43 17 -43 -112 0 -341 -64 -447 -125 -33 -19 -21 -18 54 1 110 29 300 9 664 -71 180 -39 357 -55 622 -55 189 0 296 14 393 50 65 25 78 42 51 71 -33 37 -2 39 88 5 148 -56 178 -86 217 -216 51 -170 171 -324 291 -374 121 -50 329 -15 442 76 15 12 30 19 33 16 3 -3 -6 -28 -20 -56 -25 -50 -32 -77 -17 -70 4 2 34 17 67 34 33 18 118 51 190 74 71 24 152 53 181 66 68 30 81 20 43 -36 -49 -73 -101 -169 -97 -180 6 -18 151 85 209 147 46 51 62 77 88 150 35 100 54 139 67 137 5 -1 33 -5 63 -9 l53 -7 -7 33 c-4 19 -33 99 -66 179 -122 301 -176 430 -182 436 -7 7 29 -125 45 -166 25 -64 27 -78 8 -73 -11 3 -50 63 -96 146 -128 234 -304 547 -330 588 -20 32 -29 38 -47 34 -19 -5 -33 7 -92 82 -102 129 -263 317 -344 403 l-72 75 29 -55 c16 -30 55 -104 87 -165 31 -60 98 -170 147 -243 49 -73 88 -141 86 -150 -3 -12 -136 113 -439 413 -425 421 -531 520 -516 482 4 -10 16 -54 27 -98 11 -44 36 -127 55 -186 19 -58 35 -112 35 -119 0 -26 -27 -14 -121 53 -52 36 -179 125 -284 196 -258 176 -348 244 -512 386 -78 66 -146 121 -152 121 -6 0 5 -37 24 -82z m1331 -1290 c53 -58 106 -136 102 -150 -4 -11 -147 155 -169 195 -17 31 21 5 67 -45z m874 -242 c41 -42 68 -76 61 -76 -15 0 -171 149 -171 163 0 16 37 -14 110 -87z m-585 -121 c67 -56 223 -147 329 -191 54 -23 86 -42 86 -51 0 -12 -9 -14 -47 -9 -126 18 -209 46 -270 92 -46 35 -173 181 -173 200 0 19 9 14 75 -41z m-574 -191 c33 -39 160 -132 283 -205 160 -96 178 -108 171 -118 -2 -5 -28 -2 -57 5 -29 7 -102 25 -163 40 -166 40 -343 111 -318 127 5 3 40 4 77 1 37 -2 72 -1 77 2 5 3 -20 39 -56 81 -65 76 -84 114 -47 94 10 -5 25 -18 33 -27z m775 -275 c90 -54 118 -79 89 -79 -36 0 -250 134 -240 151 7 10 38 -4 151 -72z m-442 -78 c7 -6 28 -40 45 -76 32 -65 77 -105 118 -105 11 0 37 11 58 26 41 28 62 28 79 1 15 -23 -16 -80 -66 -120 -121 -97 -293 9 -338 208 -15 66 -1 89 51 82 22 -3 46 -10 53 -16z" fill="#27ae60"/>
<path d="M3707 7870 c-260 -41 -413 -177 -581 -514 -32 -64 -57 -119 -54 -121 2 -2 58 46 123 107 200 186 336 275 493 321 58 18 83 4 41 -22 -45 -28 -255 -246 -294 -306 -66 -101 -143 -256 -174 -352 -41 -124 -55 -289 -48 -541 5 -173 21 -331 33 -319 3 2 9 55 15 118 27 295 115 541 293 814 79 122 377 425 418 425 6 0 -25 -37 -67 -82 -128 -136 -238 -317 -310 -512 -64 -173 -69 -214 -69 -561 -1 -289 1 -316 22 -400 24 -96 122 -388 129 -382 2 2 -2 47 -8 100 -14 111 0 402 26 552 57 323 267 692 502 881 54 44 152 113 218 154 201 123 335 212 335 221 0 5 -12 11 -27 15 -47 10 -187 56 -215 70 -42 22 -35 36 15 30 214 -29 336 -49 403 -66 125 -32 298 -90 314 -106 12 -12 4 -14 -63 -14 -43 0 -113 -7 -155 -16 -157 -32 -243 -84 -397 -239 -174 -174 -253 -306 -329 -546 -36 -111 -76 -309 -76 -372 l0 -32 19 30 c27 45 103 110 161 140 29 15 54 25 56 22 2 -2 -20 -40 -49 -84 -101 -151 -124 -297 -77 -471 12 -45 26 -84 30 -87 5 -3 12 21 15 52 4 32 18 82 31 112 23 52 107 161 123 161 4 0 12 -39 17 -87 8 -77 12 -89 32 -98 12 -5 22 -13 22 -17 0 -4 -16 -29 -36 -55 l-36 -48 4 -105 c6 -129 30 -196 100 -283 51 -64 126 -135 165 -156 21 -11 22 -10 10 21 -17 46 -16 363 1 402 11 25 15 27 26 15 7 -8 27 -67 45 -132 70 -264 141 -406 270 -537 53 -54 75 -72 62 -50 -41 65 -110 221 -140 314 -56 176 -64 364 -21 531 29 113 93 227 114 204 2 -2 -5 -31 -16 -64 -11 -33 -23 -102 -28 -153 -13 -142 12 -352 41 -352 5 0 23 29 39 65 16 36 34 65 39 65 6 0 13 -17 16 -37 15 -90 39 -171 62 -214 26 -49 208 -248 217 -238 3 3 -1 29 -10 58 -8 29 -14 57 -12 63 6 17 162 -170 472 -565 59 -76 110 -136 113 -133 8 7 -46 212 -83 316 -50 138 -164 361 -239 465 -35 49 -97 125 -136 168 -39 43 -69 80 -67 83 3 2 81 -34 174 -81 169 -85 304 -141 304 -127 0 4 -23 39 -50 77 -127 174 -230 400 -307 672 -22 81 -27 119 -28 219 0 115 1 123 30 179 42 82 60 85 51 9 l-8 -59 79 76 c128 125 202 166 423 237 167 53 276 74 385 75 81 0 97 -3 155 -31 36 -17 112 -61 169 -96 139 -88 191 -106 321 -113 l105 -6 -60 52 c-77 68 -244 149 -480 234 -399 143 -686 221 -869 238 -61 5 -112 11 -114 14 -12 12 11 33 64 60 70 34 183 44 287 26 167 -29 710 -223 945 -337 145 -71 220 -131 299 -238 53 -71 71 -132 86 -284 9 -89 15 -117 26 -117 23 0 149 163 187 241 97 202 102 441 13 657 -42 100 -131 229 -221 318 -79 78 -223 183 -238 174 -19 -12 83 -286 141 -376 16 -25 29 -48 29 -51 0 -3 -27 -6 -60 -7 -79 -1 -209 -23 -397 -68 l-152 -37 -273 72 c-258 68 -275 74 -300 104 -15 18 -34 40 -41 49 -11 12 -41 17 -131 22 -101 5 -122 9 -159 31 -51 30 -126 103 -180 174 -22 28 -44 52 -49 52 -6 0 -39 27 -75 60 -73 69 -136 104 -225 125 -77 18 -163 23 -583 35 -355 10 -319 6 -715 90 -158 33 -326 45 -423 30z m1626 -721 c-48 -84 -197 -181 -327 -214 -77 -19 -204 -35 -281 -35 -79 1 -60 12 89 50 208 54 407 137 486 201 45 37 56 37 33 -2z m787 -255 c0 -17 -147 -91 -202 -100 l-33 -6 25 21 c19 15 192 100 208 101 1 0 2 -7 2 -16z" fill="#27ae60"/>
<path d="M4354 7071 c-139 -97 -310 -309 -380 -471 -54 -125 -69 -218 -69 -435 0 -119 5 -216 14 -260 77 -400 299 -768 584 -968 59 -41 217 -131 217 -122 0 2 -35 39 -78 83 -78 79 -193 227 -264 339 -41 66 -113 235 -164 387 -51 150 -45 168 31 105 26 -22 49 -38 51 -36 2 1 -18 61 -43 132 -32 92 -53 136 -71 151 -26 21 -26 23 -30 198 -5 208 10 368 45 481 31 100 118 283 170 361 42 62 66 104 60 104 -2 0 -35 -22 -73 -49z" fill="#27ae60"/>
<path d="M3297 4333 c-4 -3 -7 -519 -7 -1145 l0 -1139 313 3 312 3 65 31 c131 62 223 164 274 302 20 56 21 71 21 792 0 687 -1 739 -19 803 -47 170 -203 314 -375 347 -59 11 -574 14 -584 3z m576 -342 c21 -13 46 -40 57 -62 19 -37 20 -61 20 -736 l0 -698 -23 -40 c-35 -63 -89 -85 -209 -85 l-98 0 0 818 c0 450 3 822 8 826 4 5 52 6 107 4 83 -3 106 -7 138 -27z" fill="#27ae60"/>
<path d="M4990 4329 c-113 -22 -252 -125 -315 -233 -98 -168 -83 -388 37 -544 80 -104 212 -175 345 -188 97 -8 127 -20 167 -64 41 -45 52 -91 37 -147 -21 -78 -80 -123 -161 -123 -79 0 -133 41 -159 123 l-13 37 -159 0 -159 0 0 -25 c0 -94 52 -214 128 -296 118 -129 274 -185 438 -159 328 52 511 408 361 705 -40 80 -144 183 -222 220 -37 17 -97 34 -155 42 -140 22 -141 22 -176 57 -120 120 -1 321 163 277 48 -13 85 -51 112 -113 l20 -48 151 0 c174 0 170 -3 152 94 -33 178 -180 334 -357 381 -64 16 -163 18 -235 4z" fill="#27ae60"/>
<path d="M5930 4180 l0 -159 158 -3 157 -3 0 -165 0 -165 -107 4 c-58 2 -129 0 -157 -4 l-51 -7 0 -159 0 -159 160 0 160 0 0 -655 0 -655 165 0 165 0 0 655 0 655 163 2 162 3 3 115 c3 127 -8 184 -40 201 -12 7 -67 10 -142 9 -66 -2 -127 -2 -134 -1 -10 1 -12 38 -10 164 l3 162 157 3 c154 2 158 3 163 25 3 12 4 83 3 157 l-3 135 -487 3 -488 2 0 -160z" fill="#27ae60"/>
<path d="M4610 2210 l0 -160 473 -2 c259 -2 480 -1 490 1 15 3 17 19 17 162 l0 159 -490 0 -490 0 0 -160z" fill="#27ae60"/>
<path d="M2280 451 l0 -321 40 0 40 0 0 220 c0 247 1 250 64 180 l36 -40 0 -181 0 -180 43 3 42 3 3 313 2 312 -45 0 -45 0 0 -65 c0 -36 -4 -65 -9 -65 -16 0 -91 90 -91 110 0 14 -7 20 -24 20 -13 0 -31 3 -40 6 -14 6 -16 -26 -16 -315z" fill="#27ae60"/>
<path d="M2640 447 l0 -319 89 4 c101 3 133 19 163 79 15 29 18 63 18 237 0 218 -3 233 -55 282 -23 21 -38 25 -120 30 l-95 5 0 -318z m178 9 c3 -231 1 -239 -56 -234 l-34 3 1 220 c1 137 6 222 12 226 6 3 25 3 42 0 l32 -7 3 -208z" fill="#27ae60"/>
<path d="M7572 762 l-32 -3 2 -312 3 -312 40 0 40 0 3 224 2 225 45 -44 45 -44 0 -183 0 -183 45 0 45 0 0 315 0 315 -45 0 -45 0 0 -65 c0 -36 -3 -65 -7 -65 -16 0 -83 86 -83 106 0 25 -12 31 -58 26z" fill="#27ae60"/>
<path d="M190 445 l0 -317 89 4 c101 3 133 19 163 79 15 29 18 63 18 237 0 219 -3 233 -55 282 -24 22 -37 25 -121 28 l-94 4 0 -317z m166 214 c19 -15 21 -408 2 -427 -7 -7 -27 -12 -45 -12 l-33 0 0 229 0 230 31 -4 c17 -3 37 -10 45 -16z" fill="#27ae60"/>
<path d="M552 718 c3 -43 3 -43 46 -46 l42 -3 0 -45 0 -44 -46 0 -45 0 3 -42 c3 -42 4 -43 43 -46 47 -4 52 -10 47 -57 -4 -34 -5 -35 -49 -35 l-44 0 3 -42 c3 -43 3 -43 46 -46 l42 -3 0 -45 0 -44 -46 0 -45 0 3 -43 3 -42 133 -3 132 -3 0 46 0 45 -45 0 -45 0 0 45 0 45 45 0 45 0 0 45 0 45 -45 0 -45 0 0 45 0 45 45 0 45 0 0 45 0 45 -45 0 -45 0 0 44 c0 37 3 45 23 50 12 3 33 3 45 -1 20 -5 22 -2 22 41 l0 46 -136 0 -135 0 3 -42z" fill="#27ae60"/>
<path d="M912 718 l3 -43 178 -3 177 -2 0 45 0 45 -181 0 -180 0 3 -42z" fill="#27ae60"/>
<path d="M1372 629 l3 -134 40 0 40 0 3 93 c1 50 5 92 8 92 21 0 63 -34 74 -60 11 -26 17 -30 51 -30 32 0 41 5 53 28 18 34 34 49 61 54 18 3 20 -4 25 -87 l5 -90 43 -3 42 -3 0 135 0 136 -63 0 c-48 0 -76 -6 -115 -26 l-52 -26 -31 23 c-25 17 -50 24 -111 27 l-79 5 3 -134z" fill="#27ae60"/>
<path d="M1912 718 l3 -43 130 0 130 0 3 43 3 42 -136 0 -136 0 3 -42z" fill="#27ae60"/>
<path d="M3264 750 c-41 -16 -74 -68 -74 -116 0 -79 40 -122 130 -140 42 -9 56 -38 35 -70 -19 -29 -42 -31 -70 -4 -30 28 -83 37 -91 15 -12 -31 23 -85 69 -105 53 -24 61 -24 112 0 49 24 75 64 75 118 0 61 -34 103 -104 127 -64 22 -83 43 -66 75 15 27 65 27 80 0 8 -15 21 -20 50 -20 47 0 52 16 20 67 -33 54 -106 78 -166 53z" fill="#27ae60"/>
<path d="M3613 741 c-60 -38 -63 -52 -63 -346 l0 -265 40 0 40 0 0 185 0 185 46 0 c60 0 99 24 125 77 17 35 18 48 10 80 -24 87 -125 130 -198 84z m105 -83 c18 -18 15 -42 -7 -62 -37 -33 -88 5 -70 52 9 25 56 31 77 10z" fill="#27ae60"/>
<path d="M3912 718 l3 -43 175 0 175 0 3 43 3 42 -181 0 -181 0 3 -42z" fill="#27ae60"/>
<path d="M4433 740 c-62 -37 -62 -39 -64 -335 l-1 -270 41 -3 41 -3 0 41 c0 27 5 43 15 46 22 9 60 -20 75 -55 11 -27 17 -31 51 -31 33 0 39 3 39 20 0 31 -36 95 -67 120 -15 12 -47 26 -70 33 l-44 11 3 91 3 90 53 5 c69 7 112 47 119 112 13 110 -101 185 -194 128z m108 -92 c13 -25 -13 -68 -41 -68 -45 0 -66 58 -29 83 25 18 56 11 70 -15z" fill="#27ae60"/>
<path d="M4793 741 c-60 -38 -63 -52 -63 -346 l0 -266 43 3 42 3 -3 43 c-3 39 -2 42 21 42 27 0 77 -50 77 -76 0 -10 13 -14 45 -14 44 0 45 1 39 27 -17 71 -65 123 -134 146 l-45 15 0 88 0 89 50 5 c77 8 103 31 128 112 9 28 -11 83 -42 112 -40 39 -112 46 -158 17z m105 -83 c17 -17 15 -38 -5 -60 -22 -25 -50 -23 -68 6 -13 19 -14 29 -5 45 12 24 58 29 78 9z" fill="#27ae60"/>
<path d="M5092 718 l3 -43 133 -3 132 -3 0 46 0 45 -136 0 -135 0 3 -42z" fill="#27ae60"/>
<path d="M5452 718 l3 -43 223 -3 222 -2 0 45 0 45 -226 0 -225 0 3 -42z" fill="#27ae60"/>
<path d="M6180 716 l0 -45 43 2 42 2 0 -45 0 -45 -43 -3 -43 -3 3 -42 c3 -42 3 -42 46 -45 l42 -3 0 -180 0 -180 43 3 42 3 3 177 2 177 43 3 c42 3 42 3 45 46 l3 42 -45 0 -46 0 0 44 0 45 43 3 c42 3 42 3 45 46 l3 42 -135 0 -136 0 0 -44z" fill="#27ae60"/>
<path d="M6542 448 l3 -313 88 -3 87 -3 0 46 0 45 -45 0 -45 0 0 135 0 135 45 0 45 0 0 45 0 45 -45 0 -45 0 0 44 c0 46 11 56 68 56 19 0 22 5 22 40 l0 40 -90 0 -90 0 2 -312z" fill="#27ae60"/>
<path d="M6895 751 c-11 -5 -31 -21 -45 -36 -25 -27 -25 -27 -28 -255 -3 -263 0 -278 71 -311 53 -23 74 -24 116 -1 35 19 71 72 71 104 0 29 -61 24 -90 -7 -27 -29 -52 -32 -74 -9 -13 13 -16 46 -16 205 0 112 4 198 10 210 15 26 66 26 80 -1 8 -15 21 -20 52 -20 40 0 40 0 34 33 -10 52 -55 89 -113 93 -26 2 -57 0 -68 -5z" fill="#27ae60"/>
<path d="M7180 444 l0 -315 43 3 42 3 3 178 2 177 45 0 45 0 0 -180 0 -180 45 0 45 0 0 315 0 315 -45 0 -45 0 0 -90 0 -90 -45 0 -45 0 0 90 0 90 -45 0 -45 0 0 -316z" fill="#27ae60"/>
<path d="M7900 738 c0 -13 3 -33 6 -46 6 -22 9 -23 133 -20 l126 3 3 43 3 42 -135 0 c-134 0 -136 0 -136 -22z" fill="#27ae60"/>
<path d="M8270 445 l0 -316 88 3 87 3 0 40 0 40 -48 3 -48 3 1 257 c1 141 1 263 1 270 -1 7 -16 12 -41 12 l-40 0 0 -315z" fill="#27ae60"/>
<path d="M8542 718 l3 -43 130 0 130 0 3 43 3 42 -136 0 -136 0 3 -42z" fill="#27ae60"/>
<path d="M8973 744 c-20 -10 -40 -32 -53 -58 -24 -52 -25 -60 -1 -113 21 -45 53 -67 114 -78 48 -9 65 -37 42 -71 -19 -29 -42 -31 -71 -3 -12 11 -40 23 -63 26 l-41 6 0 -94 c0 -116 12 -160 51 -193 42 -36 89 -42 136 -20 41 20 86 78 80 103 -4 22 -66 16 -92 -9 -43 -40 -89 -17 -83 41 3 31 5 33 46 35 51 3 86 23 112 67 24 38 25 75 5 123 -13 32 -13 39 0 64 59 114 -64 232 -182 174z m105 -110 c4 -38 -18 -59 -53 -50 -15 4 -27 16 -31 31 -9 35 12 57 50 53 27 -3 31 -7 34 -34z" fill="#27ae60"/>
<path d="M9268 715 l4 -45 45 0 44 0 -3 -42 c-3 -43 -3 -43 -45 -46 l-43 -3 0 -45 0 -44 46 0 45 0 -3 -42 c-3 -43 -3 -43 -45 -46 l-43 -3 0 -45 0 -44 45 0 45 0 0 -45 0 -45 -45 0 c-39 0 -45 -3 -51 -24 -14 -59 -10 -61 132 -64 l132 -3 4 35 c6 50 1 56 -48 56 l-44 0 0 45 0 45 44 0 c49 0 54 6 48 56 -4 31 -7 33 -46 36 -41 3 -41 3 -44 46 l-3 42 38 0 c49 0 60 11 55 54 -4 33 -6 35 -46 38 -41 3 -41 3 -44 46 l-3 42 45 0 c37 0 46 4 47 18 1 9 2 28 3 42 l1 25 -135 3 -135 3 3 -46z" fill="#27ae60"/>
<path d="M9630 445 l0 -315 90 0 90 0 0 45 0 45 -45 0 c-29 0 -45 4 -46 13 0 16 0 229 0 244 1 7 19 13 44 15 42 3 42 3 45 46 l3 42 -45 0 c-49 0 -51 3 -46 60 3 32 2 32 47 33 37 2 38 3 41 45 l3 42 -90 0 -91 0 0 -315z" fill="#27ae60"/>
<path d="M9965 741 c-42 -25 -70 -89 -60 -137 8 -44 51 -90 91 -99 66 -15 84 -27 84 -54 0 -52 -38 -66 -77 -29 -22 21 -83 31 -98 16 -9 -8 14 -61 38 -86 48 -51 144 -47 191 9 28 33 42 86 31 119 -14 43 -65 90 -107 96 -68 11 -91 59 -43 90 25 16 27 16 53 -10 20 -18 39 -26 65 -26 42 0 44 7 20 57 -32 68 -123 94 -188 54z" fill="#27ae60"/>
<path d="M995 566 c-47 -21 -67 -51 -73 -105 -6 -65 22 -112 80 -135 51 -21 89 -14 135 27 l35 31 28 -34 29 -35 27 21 c15 11 29 25 31 31 2 6 -32 52 -77 101 -99 110 -142 130 -215 98z m85 -86 c11 -11 20 -26 20 -34 0 -19 -28 -46 -47 -46 -21 0 -53 29 -53 47 0 15 35 53 50 53 6 0 19 -9 30 -20z" fill="#27ae60"/>
<path d="M1995 568 c-40 -22 -65 -52 -76 -90 -8 -32 -6 -46 10 -84 17 -36 29 -49 67 -66 40 -17 53 -19 83 -9 118 35 136 193 28 244 -40 19 -83 21 -112 5z m93 -111 c4 -35 -13 -57 -44 -57 -32 0 -51 38 -34 69 9 17 19 21 43 19 27 -2 33 -8 35 -31z" fill="#27ae60"/>
<path d="M3979 557 c-19 -12 -42 -39 -53 -60 -62 -128 116 -247 214 -142 l24 25 33 -32 33 -32 30 29 29 30 -82 89 c-109 118 -159 139 -228 93z m99 -79 c28 -28 7 -78 -33 -78 -27 0 -45 18 -45 45 0 27 18 45 45 45 12 0 26 -5 33 -12z" fill="#27ae60"/>
<path d="M5164 565 c-36 -19 -74 -81 -74 -121 0 -36 31 -87 65 -110 14 -9 46 -18 70 -18 53 -1 92 24 119 78 24 49 15 97 -27 143 -39 42 -102 54 -153 28z m94 -87 c28 -28 7 -78 -33 -78 -27 0 -45 18 -45 45 0 27 18 45 45 45 12 0 26 -5 33 -12z" fill="#27ae60"/>
<path d="M5461 568 c0 -7 19 -67 42 -133 l42 -120 39 -3 c45 -4 49 1 71 76 9 28 19 52 24 52 4 0 16 -28 27 -62 l19 -63 44 0 44 0 39 115 c21 63 41 123 44 133 5 14 -1 17 -39 17 l-44 0 -16 -60 c-10 -33 -21 -60 -26 -60 -5 0 -18 26 -28 58 l-20 57 -45 3 -45 3 -18 -61 c-10 -34 -22 -63 -26 -66 -4 -2 -16 24 -26 58 l-18 63 -43 3 c-30 2 -42 -1 -41 -10z" fill="#27ae60"/>
<path d="M7984 566 c-47 -21 -74 -61 -74 -113 0 -63 23 -101 76 -124 57 -26 109 -14 153 36 91 104 -26 257 -155 201z m96 -97 c14 -26 -11 -69 -40 -69 -39 0 -65 51 -38 78 20 20 66 15 78 -9z" fill="#27ae60"/>
<path d="M8610 562 c-101 -54 -84 -206 26 -242 71 -24 155 28 170 105 19 104 -102 188 -196 137z m100 -86 c31 -39 -26 -98 -64 -66 -19 15 -21 66 -3 73 24 10 55 7 67 -7z" fill="#27ae60"/>
<path d="M1370 355 l0 -45 225 0 225 0 0 45 0 45 -225 0 -225 0 0 -45z" fill="#27ae60"/>
<path d="M915 201 c-3 -11 -3 -31 1 -45 l6 -26 173 0 c96 0 176 3 178 8 2 4 2 24 0 45 l-5 37 -173 0 c-162 0 -174 -1 -180 -19z" fill="#27ae60"/>
<path d="M1370 175 l0 -45 225 0 225 0 0 45 0 45 -225 0 -225 0 0 -45z" fill="#27ae60"/>
<path d="M1912 178 l3 -43 133 -3 132 -3 0 46 0 45 -136 0 -135 0 3 -42z" fill="#27ae60"/>
<path d="M3185 198 c-3 -13 -3 -32 -2 -43 4 -19 13 -20 135 -23 l132 -3 0 46 0 45 -130 0 c-126 0 -130 -1 -135 -22z" fill="#27ae60"/>
<path d="M3910 175 l0 -45 180 0 180 0 0 45 0 45 -180 0 -180 0 0 -45z" fill="#27ae60"/>
<path d="M5090 175 l0 -45 135 0 135 0 0 45 0 45 -135 0 -135 0 0 -45z" fill="#27ae60"/>
<path d="M5454 206 c-3 -8 -4 -27 -2 -43 l3 -28 223 -3 222 -2 0 45 0 45 -220 0 c-181 0 -222 -3 -226 -14z" fill="#27ae60"/>
<path d="M7908 209 c-2 -6 -2 -26 0 -45 l4 -34 129 0 129 0 0 45 0 45 -129 0 c-86 0 -131 -4 -133 -11z" fill="#27ae60"/>
<path d="M8540 175 l0 -45 135 0 135 0 0 45 0 45 -135 0 -135 0 0 -45z" fill="#27ae60"/>
<path d="M9900 175 l0 -45 135 0 135 0 0 45 0 45 -135 0 -135 0 0 -45z" fill="#27ae60"/>
</g>
</svg>